<svg width="23" height="23" viewBox="0 0 23 23" fill="none" xmlns="http://www.w3.org/2000/svg">
<g id="&#209;&#131;&#209;&#128;&#208;&#189;&#208;&#176; 1" clip-path="url(#clip0_204_299)">
<g id="&#208;&#161;&#208;&#187;&#208;&#190;&#208;&#185;_x0020_1">
<path id="Vector" d="M0.920725 5.93238C0.455478 5.93238 0.078125 5.55502 0.078125 5.08978C0.078125 4.62453 0.455478 4.24718 0.920725 4.24718H5.80008V3.12227C5.80008 2.26104 6.15259 1.4772 6.7191 0.91069C7.28561 0.344178 8.06946 -0.00834656 8.93069 -0.00834656H12.8657C13.7241 -0.00834656 14.507 0.344178 15.0739 0.91069C15.6438 1.4772 15.9963 2.26104 15.9963 3.12227V4.24718H20.8752C21.3404 4.24718 21.7178 4.62453 21.7178 5.08978C21.7178 5.55502 21.3404 5.93238 20.8752 5.93238H18.8566V22.0412C18.8566 22.5064 18.4792 22.8838 18.014 22.8838H3.78098C3.31574 22.8838 2.93838 22.5064 2.93838 22.0412V5.93238H0.920725ZM7.48527 4.24718H14.3111V3.12227C14.3111 2.72582 14.1477 2.36374 13.886 2.10198C13.6257 1.83927 13.2631 1.67686 12.8657 1.67686H8.93069C8.53423 1.67686 8.17216 1.84022 7.9104 2.10198C7.64864 2.36374 7.48527 2.72582 7.48527 3.12227V4.24718ZM8.41243 17.7493C8.41243 18.2146 8.03507 18.5919 7.56983 18.5919C7.10458 18.5919 6.72723 18.2146 6.72723 17.7493V8.80888C6.72723 8.34363 7.10458 7.96628 7.56983 7.96628C8.03507 7.96628 8.41243 8.34363 8.41243 8.80888V17.7493ZM15.0658 17.7493C15.0658 18.2146 14.6885 18.5919 14.2232 18.5919C13.758 18.5919 13.3806 18.2146 13.3806 17.7493V8.80888C13.3806 8.34363 13.758 7.96628 14.2232 7.96628C14.6885 7.96628 15.0658 8.34363 15.0658 8.80888V17.7493ZM17.1714 5.93286H4.62358V21.1986H17.1714V5.93286ZM11.7408 17.7493C11.7408 18.2146 11.3634 18.5919 10.8982 18.5919C10.433 18.5919 10.0556 18.2146 10.0556 17.7493V8.80888C10.0556 8.34363 10.433 7.96628 10.8982 7.96628C11.3634 7.96628 11.7408 8.34363 11.7408 8.80888V17.7493Z" fill="#FECF3D"/>
</g>
</g>
<defs>
<clipPath id="clip0_204_299">
<rect width="23" height="23" fill="white"/>
</clipPath>
</defs>
</svg>
